<?xml version="1.0" encoding="utf-8" ?>
<svg
  version="1.1"
  id="Layer_1"
  xmlns="http://www.w3.org/2000/svg"
  xmlns:xlink="http://www.w3.org/1999/xlink"
  x="0px"
  y="0px"
  viewBox="0 0 297.2 348.9"
  style="enable-background:new 0 0 297.2 348.9;"
  xml:space="preserve"
>
  <style type="text/css">.st0{fill:#FFFFFF;}</style>
  <path
    class="st0"
    d="M44.5,135.4v90.2c0,12.1-9.6,21.7-21.7,21.7s-21.7-9.6-21.7-21.7v-90.2c0-12.1,9.6-21.7,21.7-21.7 	S44.5,123.3,44.5,135.4z M52.5,257.5c0,12.9,10.4,23.4,23.4,23.4h15.5v47.8c0,12.1,9.6,21.7,21.7,21.7s21.7-9.6,21.7-21.7v-47.8 	h28.9v47.8c0,12.1,9.6,21.7,21.7,21.7c12.1,0,21.7-9.6,21.7-21.7v-47.8h15.5c12.9,0,23.4-10.4,23.4-23.4V117.4H52.5V257.5z 	 M245.8,109.8H52.5c0-33.3,19.9-62.4,49.2-77.6L86.5,4.6c-0.9-1.5-0.4-3.3,1.2-4.2C88.2,0.1,88.6,0,89.2,0c1.1,0,2.1,0.5,2.7,1.6 	l15.5,27.9c12.6-5.6,26.8-8.8,41.8-8.8s29.2,3.1,41.8,8.8l15.5-27.9C207,0.5,208,0,209.1,0c0.5,0,1,0.1,1.5,0.4 	c1.5,0.9,2.1,2.6,1.2,4.2l-15.3,27.6C225.9,47.4,245.7,76.5,245.8,109.8z M112.6,66.4c0-4.4-3.7-8.1-8.1-8.1s-8.1,3.7-8.1,8.1 	s3.7,8.1,8.1,8.1S112.6,70.8,112.6,66.4z M201.8,66.4c0-4.4-3.7-8.1-8.1-8.1c-4.4,0-8.1,3.7-8.1,8.1s3.7,8.1,8.1,8.1 	C198.1,74.4,201.8,70.8,201.8,66.4z M275.5,113.7c-12.1,0-21.7,9.6-21.7,21.7v90.2c0,12.1,9.6,21.7,21.7,21.7s21.7-9.6,21.7-21.7 	v-90.2C297.2,123.3,287.6,113.7,275.5,113.7z"
  />
</svg>
