<?xml version="1.0" encoding="utf-8" ?>
<svg
  version="1.1"
  id="Layer_1"
  xmlns="http://www.w3.org/2000/svg"
  xmlns:xlink="http://www.w3.org/1999/xlink"
  x="0px"
  y="0px"
  viewBox="0 0 196 196"
  style="enable-background:new 0 0 196 196;"
  xml:space="preserve"
>
  <style type="text/css">.st0{fill:#FFFFFF;}</style>
  <path
    class="st0"
    d="M109,96.7c0,23.2-12.4,37.9-31.8,37.9s-31.8-14.7-31.8-37.9c0-23.1,12.4-37.8,31.8-37.8l0,0 	C96.6,58.8,109,73.5,109,96.7z M195,46v104c0,24.9-20.1,45-45,45H46c-24.9,0-45-20.1-45-45V46C1,21.1,21.1,1,46,1h104 	C174.9,1,195,21.1,195,46z M32.9,76.6h-4.6v61h4.6V76.6z M34.1,58.2c0-2-1.6-3.5-3.6-3.5c-1.9,0-3.5,1.5-3.5,3.5 	c0,1.9,1.6,3.5,3.5,3.5C32.5,61.6,34.1,60.1,34.1,58.2z M113.6,96.7c0-25.7-14.2-42-36.4-42S40.8,71,40.8,96.7 	c0,25.8,14.1,42.1,36.4,42.1C99.5,138.7,113.6,122.5,113.6,96.7z M174.6,115.7c0-10.9-7.1-16.9-22.9-20.8l-9.1-2.3 	c-13.1-3.3-19.1-8-19.1-16.1c0-10.3,9.8-17.7,22.1-17.7c12.9,0,22.4,7.1,23,16.9h4.5c-0.5-12-12-21.1-27.4-21.1 	c-14.9,0-26.8,9.2-26.8,21.9c0,10.2,6.9,16.4,22,20.2l9.7,2.4c13.7,3.5,19.5,8.4,19.5,16.9c0,10.6-9.7,18.5-23.5,18.5 	c-14.2,0-24.6-7.8-25.3-18.9h-4.5c0.7,13.5,12.7,23,29.4,23l0,0C163.2,138.7,174.6,129.3,174.6,115.7z"
  />
</svg>
