<?xml version="1.0" encoding="utf-8" ?>
<svg
  version="1.1"
  viewBox="0 0 280 330"
  xmlns="http://www.w3.org/2000/svg"
  style="enable-background:new 0 0 280 330;"
>
  <style type="text/css">.st1{fill:#FFFFFF;}</style>
  <g>
    <path
      class="st1"
      d="M266.1,271c-0.9-6.2-11.6-10.8-15.4-14.6c-7.2-7.2-3.6-22-14.1-25.2c15.9-26.1-4.7-66.9-22.1-87.1 		c-9.1-10.5-13.8-21.7-20-33.9c-7.5-14.8-3.9-31.7-6.4-47.8c-4.6-30.2-36.5-53-66.1-39.1c-30.3,14.2-23.2,57.9-21,85h0 		c1.9,23-20.1,33.4-28.9,52.7c-5,10.9-7,22.8-12.5,33.7c-2.5,5-6,9.9-7.7,15.2c-1.8,5.5,0.7,9.7,0.1,14.7 		c-1.4,11.1-7.5,13.2-17.7,14.2c-12,1.2-13.2,6.5-12.3,17.7c0.5,5.7,1.5,11.4,0.3,17.1c-1,4.8-5.8,10.2-5.3,15.1 		c0.9,9.3,15.6,10.6,22.9,12.6c11.3,3.1,22.8,4.9,33.8,9c10.7,4,21.5,9.3,31.5,0.4c3.4-3.1,4.5-7.9,7.9-9.9c4.1-2.4,12.4-1.9,17-2 		c11.4-0.1,23,0.9,34.2,2.9c3.2,0.6,6.3,1.3,9.5,2c1.9,0.1,2.5,1.4,1.9,3.9c4.8,5,5.8,6.7,13.3,7.9c9.1,1.4,18.3,1.2,26.2-4.2 		c10.2-7,17.6-15.9,28.8-21.9c8-4.2,18.4-7.3,22.1-16.4C266.2,272.7,266.2,271.9,266.1,271C266.1,270.8,266.2,271.4,266.1,271z"
    />
  </g>
</svg>
