<svg xmlns="http://www.w3.org/2000/svg" viewBox="0 0 170 170">
  <path
    fill="#FFFFFF"
    d="M153.6,132.5c-2.6,5.9-5.6,11.4-9.1,16.4c-4.8,6.9-8.7,11.6-11.8,14.2c-4.7,4.3-9.7,6.5-15.1,6.7 c-3.9,0-8.5-1.1-14-3.3c-5.5-2.2-10.5-3.3-15-3.3c-4.8,0-10,1.1-15.5,3.3c-5.5,2.2-10,3.4-13.4,3.5c-5.2,0.2-10.3-2.1-15.5-6.8 c-3.3-2.9-7.4-7.8-12.3-14.7c-5.3-7.4-9.6-16-13-25.9c-3.6-10.6-5.5-20.9-5.5-30.8c0-11.4,2.5-21.2,7.4-29.5 c3.9-6.6,9-11.8,15.5-15.7s13.4-5.8,20.9-5.9c4.1,0,9.5,1.3,16.2,3.8c6.7,2.5,11,3.8,12.8,3.8c1.4,0,6.2-1.5,14.2-4.4 c7.6-2.7,14.1-3.9,19.4-3.4c14.3,1.2,25,6.8,32.2,17c-12.8,7.8-19.1,18.6-19,32.5c0.1,10.8,4.1,19.9,11.8,27 c3.5,3.3,7.4,5.9,11.8,7.7C155.7,127.3,154.7,130,153.6,132.5L153.6,132.5z M120.8,3.4c0,8.5-3.1,16.4-9.3,23.8 C104,35.9,95,41,85.2,40.2c-0.1-1-0.2-2.1-0.2-3.2c0-8.2,3.6-16.9,9.9-24c3.2-3.6,7.2-6.6,12-9c4.8-2.4,9.4-3.7,13.7-3.9 C120.7,1.1,120.8,2.3,120.8,3.4L120.8,3.4z"
  />
</svg>
