<?xml version="1.0" encoding="utf-8" ?>
<svg
  version="1.1"
  id="Layer_1"
  xmlns="http://www.w3.org/2000/svg"
  xmlns:xlink="http://www.w3.org/1999/xlink"
  x="0px"
  y="0px"
  viewBox="0 0 233 233"
  style="enable-background:new 0 0 233 233;"
  xml:space="preserve"
>
  <style type="text/css">.st0{fill:#FFFFFF;}</style>
  <path
    class="st0"
    d="M233,116.5c0,64.3-52.2,116.5-116.5,116.5C64,233,19.6,198.2,5,150.5l44.1,18.2c2.2,9.9,9,18.6,19.1,22.8 	c16.4,6.9,35.4-1,42.2-17.4c1.8-4.3,2.6-8.8,2.5-13.3l40.8-29.1c0.3,0,0.7,0,1,0c24.4,0,44.3-19.9,44.3-44.3s-19.8-44.3-44.3-44.3 	c-24.4,0-44.3,19.9-44.3,44.3c0,0.2,0,0.4,0,0.6L82,129.3c-4.6-0.2-9.3,0.6-13.6,2.4c-1.9,0.8-3.8,1.8-5.5,2.9L0.3,108.8l0,0 	c0,0,0-0.1-0.1-0.1C4.2,48,54.8,0,116.5,0C180.8,0,233,52.2,233,116.5z M72.6,178.4l-14.4-6c2.6,5.3,7,9.8,12.8,12.2 	c12.7,5.3,27.3-0.7,32.6-13.5l0,0c2.6-6.1,2.6-12.9,0-19.1c-2.5-6.2-7.3-11-13.5-13.5c-6.1-2.5-12.6-2.5-18.4-0.3l14.9,6.2 	c9.4,3.9,13.8,14.7,9.9,24C92.7,177.9,82,182.3,72.6,178.4z M154.8,116.9c-16.3,0-29.5-13.3-29.5-29.5c0-16.3,13.2-29.5,29.5-29.5 	s29.5,13.3,29.5,29.5C184.2,103.6,171,116.9,154.8,116.9z M154.8,109.5c12.2,0,22.2-9.9,22.2-22.2s-9.9-22.2-22.2-22.2 	c-12.2,0-22.1,9.9-22.1,22.2C132.7,99.5,142.6,109.5,154.8,109.5z"
  />
</svg>
