<svg xmlns="http://www.w3.org/2000/svg" viewBox="0 0 482.9 483">
  <path d="M103.38 1.6c-48.1 8.6-86.8 44.2-99 91C0 109.5-.32 119.41.18 250.51c.3 120.41.4 123.21 2.4 132.49 11.1 50.1 46.7 85.8 97.3 97.6 6.6 1.5 15 1.8 69.1 2.1 56 .4 61.8.3 63.3-1.2s1.6-20.8 1.6-239.61c0-162.21-.3-238.61-1-240-1-1.8-2.7-1.9-61.3-1.8-47.58.11-61.9.41-68.2 1.51zm90.5 240v202.62l-40.7-.5c-37.5-.4-41.5-.6-49-2.5-32.2-8.3-56.1-33.1-62.8-65.4-2.2-10.1-2.2-258.91-.1-268.81a85.88 85.88 0 0151.8-61.9c13.2-5.3 19.3-5.9 62.1-6l38.7-.1v202.6zM282.59.7c-.4.3-.7 108.7-.7 240.91 0 218.11.1 240.21 1.6 240.81 2.7 1 80.3.6 89.9-.4 40.6-4.6 76.4-29.3 95.9-66a148.58 148.58 0 007.5-17.5c6.3-18.8 6.1-13.8 6.1-157.51 0-114.7-.2-131.81-1.6-139.11C471.4 49.8 431.7 10.5 379.5 1.5 372.5.3 361.7 0 326.9 0c-24.01 0-44.01.3-44.31.7zM389.4 218.51a48.93 48.93 0 0133.6 31.2c3.3 9.4 3.2 23.2-.1 31.8-6.1 15.8-18.1 26.9-33.5 31-25 6.5-51.6-8.6-58.9-33.4-2.2-7.6-2.1-20.4.4-28.2 7.49-24.5 33.49-38.91 58.5-32.4z"/>
  <path d="M166.51 144.49c0 24.66-20.59 45.25-45.25 45.25S76 169.15 76 144.49s20.59-45.25 45.25-45.25 45.26 20.59 45.26 45.25z"/>
</svg>