<?xml version="1.0" encoding="utf-8" ?>
<svg
  version="1.1"
  id="Layer_1"
  xmlns="http://www.w3.org/2000/svg"
  xmlns:xlink="http://www.w3.org/1999/xlink"
  x="0px"
  y="0px"
  viewBox="0 0 372.4 372.6"
  style="enable-background:new 0 0 372.4 372.6;"
  xml:space="preserve"
>
  <style type="text/css">.st0{fill:#FFFFFF;}</style>
  <path
    class="st0"
    d="M167.6,371.8c-28.7-2.7-57.7-13-82.7-29.3c-20.9-13.6-25.6-19.2-25.6-30.4c0-22.5,24.7-61.8,67-106.7 	c24-25.5,57.5-55.4,61.1-54.6c7,1.6,63.3,56.4,84.3,82.2c33.3,40.8,48.6,74.2,40.8,89.1c-5.9,11.3-42.6,33.5-69.5,42 	C220.8,371.2,191.6,374.1,167.6,371.8L167.6,371.8z M31.1,288.7C13.7,262.1,5,235.8,0.7,197.9c-1.4-12.5-0.9-19.7,3.2-45.4 	c5.1-32.1,23.3-69.1,45.3-92c9.3-9.7,10.2-10,21.6-6.1c13.8,4.7,28.6,14.9,51.5,35.6l13.4,12.1l-7.3,9c-34,41.5-69.8,100.5-83.3,137 	c-7.3,19.8-10.3,39.8-7.1,48C40.1,301.7,38.2,299.7,31.1,288.7z M336,293.3c1.7-8.4-0.5-23.8-5.5-39.3 	c-11-33.6-47.8-96.1-81.7-138.6L238.2,102l11.5-10.6c15-13.8,25.5-22.1,36.7-29.1c8.9-5.5,21.6-10.4,27.1-10.4 	c3.4,0,15.2,12.3,24.8,25.7c14.8,20.8,25.7,46,31.2,72.2c3.6,16.9,3.9,53.2,0.6,70.1c-2.7,13.9-8.4,31.9-14,44.1 	c-4.2,9.1-14.5,26.9-19.1,32.7C334.7,299.7,334.7,299.7,336,293.3L336,293.3z M170.7,45.5c-15.6-7.9-39.7-16.4-53-18.7 	c-4.7-0.8-12.6-1.2-17.7-1c-11,0.6-10.5,0,7.1-8.3c14.6-6.9,26.8-11,43.4-14.5c18.6-3.9,53.7-4,72-0.1c19.8,4.2,43.1,12.9,56.3,20.9 	l3.9,2.4l-9-0.5c-17.8-0.9-43.8,6.3-71.6,19.9c-8.4,4.1-15.7,7.4-16.3,7.3C185.4,52.8,178.5,49.5,170.7,45.5z"
  />
</svg>
